{"title":"Horror Story (2013) DTHRip - Xvid - 1CD - Team IcTv {VikkyMaxx}","uid":9236629,"size":742097813,"categoryP":"video","categoryS":"movies","magnet":"?xt=urn:btih:43b69957340dc4c38937342cfb69f912f9d14dc4&amp;dn=Horror+Story+%282013%29+DTHRip+-+Xvid+-+1CD+-+Team+IcTv+%7BVikkyMaxx%7D&amp;tr=udp%3A%2F%2Ftracker.openbittorrent.com%3A80&amp;tr=udp%3A%2F%2Fopen.demonii.com%3A1337&amp;tr=udp%3A%2F%2Ftracker.coppersurfer.tk%3A6969&amp;tr=udp%3A%2F%2Fexodus.desync.com%3A6969","seeders":1,"leechers":1,"uploader":"shailendramaxx","files":23,"time":1385188181,"description":" &lt;a href=&quot;http://www.imdb.com/title/tt3177332/&quot; rel=&quot;nofollow&quot; target=&quot;_NEW&quot;&gt;http://www.imdb.com/title/tt3177332/&lt;/a&gt;\n\n\nComplete name                            : Horror Story (2013) DTHRip - Xvid - 1CD - Team IcTv Exclusive\nFormat                                   : AVI\nFormat/Info                              : Audio Video Interleave\nFile size                                : 696 MiB\nDuration                                 : 1h 22mn\nOverall bit rate                         : 1 176 Kbps\n\nVideo:-\n\nID                                       : 0\nFormat                                   : MPEG-4 Visual\nFormat profile                           : Advanced Simple@L5\nFormat settings, BVOP                    : 2\nFormat settings, QPel                    : No\nFormat settings, GMC                     : No warppoints\nFormat settings, Matrix                  : Default (H.263)\nCodec ID                                 : XVID\nCodec ID/Hint                            : XviD\nDuration                                 : 1h 22mn\nBit rate                                 : 1 090 Kbps\nWidth                                    : 640 pixels\nHeight                                   : 288 pixels\nDisplay aspect ratio                     : 2.222\nFrame rate                               : 25.000 fps\nColor space                              : YUV\nChroma subsampling                       : 4:2:0\nBit depth                                : 8 bits\nScan type                                : Progressive\nCompression mode                         : Lossy\nBits/(Pixel*Frame)                       : 0.237\nStream size                              : 645 MiB (93%)\nWriting library                          : XviD 1.2.1 (UTC 2008-12-04)\n\nAudio:-\n\nID                                       : 1\nFormat                                   : MPEG Audio\nFormat version                           : Version 1\nFormat profile                           : Layer 3\nMode                                     : Joint stereo\nMode extension                           : MS Stereo\nCodec ID                                 : 55\nCodec ID/Hint                            : MP3\nDuration                                 : 1h 22mn\nBit rate mode                            : Constant\nBit rate                                 : 80.0 Kbps\nChannel(s)                               : 2 channels\nSampling rate                            : 32.0 KHz\nCompression mode                         : Lossy\nStream size                              : 47.3 MiB (7%)\nAlignment                                : Aligned on interleaves\nInterleave, duration                     : 160 ms (4.00 video frames)\nInterleave, preload duration             : 216 ms\nTitle                                    : HR FINAL T80 2_0ch 256Kbps DELAY 0ms\n\nWriting library                          : LAME3.99r\nEncoding settings                        : -m j -V 4 -q 2 -lowpass 13.5 \n\n\nSPOKEN LANGUAGE :                         HINDI\n\nSAMPLE INCLUDED\n\nSCREENS:-\n\n\n[URL=http://imageshack.com/i/5haxk9p][IMG]http://imagizer.imageshack.us/v2/150x100q90/c/197/axk9.png[/IMG][/URL]\n\n[URL=http://imageshack.com/i/gipg2wp][IMG]http://imagizer.imageshack.us/v2/150x100q90/c/594/pg2w.png[/IMG][/URL]\n\n[URL=http://imageshack.com/i/12ojdop][IMG]http://imagizer.imageshack.us/v2/150x100q90/c/38/ojdo.png[/IMG][/URL]\n\n[URL=http://imageshack.com/i/1f4i9kp][IMG]http://imagizer.imageshack.us/v2/150x100q90/c/51/4i9k.png[/IMG][/URL]\n\n[URL=http://imageshack.com/i/e9y3qfp][IMG]http://imagizer.imageshack.us/v2/150x100q90/c/513/y3qf.png[/IMG][/URL]\n\n[URL=http://imageshack.com/i/ngx0pnp][IMG]http://imagizer.imageshack.us/v2/150x100q90/c/844/x0pn.png[/IMG][/URL]\n\n[URL=http://imageshack.com/i/0nu7s7p][IMG]http://imagizer.imageshack.us/v2/150x100q90/c/23/u7s7.png[/IMG][/URL]\n\n[URL=http://imageshack.com/i/5iwuobp][IMG]http://imagizer.imageshack.us/v2/150x100q90/c/198/wuob.png[/IMG][/URL]\n\n[URL=http://imageshack.com/i/nqfa5kp][IMG]http://imagizer.imageshack.us/v2/150x100q90/c/854/fa5k.png[/IMG][/URL]\n\n[URL=http://imageshack.com/i/2h44aop][IMG]http://imagizer.imageshack.us/v2/150x100q90/c/89/44ao.png[/IMG][/URL]\n\n[URL=http://imageshack.com/i/7g5x82p][IMG]http://imagizer.imageshack.us/v2/150x100q90/c/268/5x82.png[/IMG][/URL]\n\n[URL=http://imageshack.com/i/mr8i92p][IMG]http://imagizer.imageshack.us/v2/150x100q90/c/819/8i92.png[/IMG][/URL]\n\n[URL=http://imageshack.com/i/nenx8lp][IMG]http://imagizer.imageshack.us/v2/150x100q90/c/842/nx8l.png[/IMG][/URL]\n\n[URL=http://imageshack.com/i/1qoulxp][IMG]http://imagizer.imageshack.us/v2/150x100q90/c/62/oulx.png[/IMG][/URL]\n\n\nPLEASE SEED AFTER DOWNLOAD. THANKS\n","torrent":{"xt":"urn:btih:43b69957340dc4c38937342cfb69f912f9d14dc4","amp;dn":"Horror+Story+%282013%29+DTHRip+-+Xvid+-+1CD+-+Team+IcTv+%7BVikkyMaxx%7D","amp;tr":["udp%3A%2F%2Ftracker.openbittorrent.com%3A80","udp%3A%2F%2Fopen.demonii.com%3A1337","udp%3A%2F%2Ftracker.coppersurfer.tk%3A6969","udp%3A%2F%2Fexodus.desync.com%3A6969"],"infoHash":"43b69957340dc4c38937342cfb69f912f9d14dc4","infoHashBuffer":{"type":"Buffer","data":[67,182,153,87,52,13,196,195,137,55,52,44,251,105,249,18,249,209,77,196]},"announce":[],"urlList":[]}}